<?xml version="1.0" encoding="UTF-8"?>
<!DOCTYPE svg PUBLIC "-//W3C//DTD SVG 1.1//EN" "http://www.w3.org/Graphics/SVG/1.1/DTD/svg11.dtd">
<!-- Creator: CorelDRAW X7 -->
<svg xmlns="http://www.w3.org/2000/svg" xml:space="preserve" width="13.5466mm" height="7.6198mm" version="1.1" style="shape-rendering:geometricPrecision; text-rendering:geometricPrecision; image-rendering:optimizeQuality; fill-rule:evenodd; clip-rule:evenodd"
viewBox="0 0 1355 762"
 xmlns:xlink="http://www.w3.org/1999/xlink">
 <defs>
  <style type="text/css">
   <![CDATA[
    .fil0 {fill:#363785;fill-rule:nonzero}
    .fil13 {fill:url(#id0)}
    .fil9 {fill:url(#id1)}
    .fil10 {fill:url(#id2)}
    .fil5 {fill:url(#id3)}
    .fil8 {fill:url(#id4)}
    .fil2 {fill:url(#id5)}
    .fil4 {fill:url(#id6)}
    .fil1 {fill:url(#id7)}
    .fil12 {fill:url(#id8)}
    .fil6 {fill:url(#id9)}
    .fil7 {fill:url(#id10)}
    .fil15 {fill:url(#id11)}
    .fil14 {fill:url(#id12)}
    .fil11 {fill:url(#id13)}
    .fil3 {fill:url(#id14)}
   ]]>
  </style>
  <linearGradient id="id0" gradientUnits="userSpaceOnUse" x1="-572.47" y1="69.1" x2="2169.42" y2="930.29">
   <stop offset="0" style="stop-opacity:1; stop-color:#E95229"/>
   <stop offset="0.509804" style="stop-opacity:1; stop-color:#F9B33B"/>
   <stop offset="1" style="stop-opacity:1; stop-color:#E95229"/>
  </linearGradient>
  <linearGradient id="id1" gradientUnits="userSpaceOnUse" xlink:href="#id0" x1="-619.02" y1="-249.87" x2="2389.01" y2="694.86">
  </linearGradient>
  <linearGradient id="id2" gradientUnits="userSpaceOnUse" xlink:href="#id0" x1="-432.26" y1="-255.05" x2="2238.55" y2="583.69">
  </linearGradient>
  <linearGradient id="id3" gradientUnits="userSpaceOnUse" xlink:href="#id0" x1="-566.05" y1="-72.99" x2="2244.97" y2="809.81">
  </linearGradient>
  <linearGradient id="id4" gradientUnits="userSpaceOnUse" xlink:href="#id0" x1="-533.19" y1="-178.82" x2="2278.12" y2="704.09">
  </linearGradient>
  <linearGradient id="id5" gradientUnits="userSpaceOnUse" xlink:href="#id0" x1="-850.14" y1="-117.99" x2="2503.97" y2="935.32">
  </linearGradient>
  <linearGradient id="id6" gradientUnits="userSpaceOnUse" xlink:href="#id0" x1="-644.52" y1="-51.39" x2="2297.1" y2="872.48">
  </linearGradient>
  <linearGradient id="id7" gradientUnits="userSpaceOnUse" xlink:href="#id0" x1="-640.8" y1="57.4" x2="2232.3" y2="959.54">
  </linearGradient>
  <linearGradient id="id8" gradientUnits="userSpaceOnUse" xlink:href="#id0" x1="-675.13" y1="55.56" x2="2261.46" y2="977.93">
  </linearGradient>
  <linearGradient id="id9" gradientUnits="userSpaceOnUse" xlink:href="#id0" x1="-616.37" y1="-129.72" x2="2318.6" y2="792.08">
  </linearGradient>
  <linearGradient id="id10" gradientUnits="userSpaceOnUse" xlink:href="#id0" x1="-535.24" y1="-152.12" x2="2264.63" y2="727.28">
  </linearGradient>
  <linearGradient id="id11" gradientUnits="userSpaceOnUse" xlink:href="#id0" x1="-616.73" y1="-32.99" x2="2263.83" y2="871.61">
  </linearGradient>
  <linearGradient id="id12" gradientUnits="userSpaceOnUse" xlink:href="#id0" x1="-650.7" y1="-23.45" x2="2286.33" y2="898.86">
  </linearGradient>
  <linearGradient id="id13" gradientUnits="userSpaceOnUse" xlink:href="#id0" x1="-442.3" y1="135.68" x2="2024.75" y2="910.5">
  </linearGradient>
  <linearGradient id="id14" gradientUnits="userSpaceOnUse" xlink:href="#id0" x1="-651.44" y1="-20.33" x2="2285.18" y2="901.84">
  </linearGradient>
 </defs>
 <g id="Layer_x0020_1">
  <metadata id="CorelCorpID_0Corel-Layer"/>
  <g id="_2613151632576">
   <path class="fil0" d="M242 356c18,0 36,-7 49,-23l0 -14 -113 -62c-4,9 -7,18 -7,28 0,39 31,71 71,71z"/>
   <path class="fil0" d="M78 325l20 -10 0 89 -20 10 0 -89zm86 371l20 11 0 37 -20 -10 0 -38zm1 -299l20 11 0 151 -20 -10 0 -152zm38 187l20 10 0 66 -20 -10 0 -66zm22 80l19 10 0 38 -19 -10 0 -38zm26 -145l20 11 0 66 -20 -11 0 -66zm114 21l25 -11 0 43 -25 10 0 -42zm42 -96l25 -11 0 42 -25 11 0 -42zm58 246l20 11 0 37 -20 -10 0 -38zm34 -89l20 11 0 66 -20 -11 0 -66zm1 -122l20 11 0 38 -20 -11 0 -38zm-247 -438c113,0 208,81 231,187l46 0 0 -229 -539 0 0 761 539 0 0 -273 0 -30 -80 -48 -98 43 0 41c0,0 0,0 0,0l-61 14 0 -126c-15,8 -32,13 -50,13 -73,0 -108,-61 -108,-109 0,-14 3,-29 10,-44l-90 56 2 110c-24,-37 -38,-81 -38,-129 0,-131 106,-237 236,-237z"/>
   <path class="fil1" d="M291 332c0,0 0,0 0,1l0 0 0 48c19,-10 35,-28 45,-49l-45 0z"/>
   <path class="fil2" d="M178 257l0 0c10,-24 33,-42 63,-42l0 0c25,0 42,13 52,26l0 0 44 0c-17,-40 -53,-63 -96,-63l0 0c-51,0 -83,30 -98,63l3 -1 32 17z"/>
   <path class="fil3" d="M322 305c0,35 27,63 63,63 36,0 62,-28 62,-63 0,-34 -26,-63 -62,-63l0 0c-36,0 -63,29 -63,63zm29 0c0,-19 13,-36 34,-36l0 0c21,0 34,17 34,36l0 0c0,20 -13,36 -34,36l0 0c-21,0 -34,-16 -34,-36l0 0z"/>
   <polygon class="fil4" points="454,364 485,364 515,284 544,364 575,364 527,246 502,246 "/>
   <polygon class="fil5" points="588,364 616,364 616,315 660,315 660,364 688,364 688,246 660,246 660,290 616,290 616,246 588,246 "/>
   <path class="fil6" d="M706 306c0,27 20,62 62,62 6,0 42,0 57,-38l0 0 -32 0c-7,9 -17,11 -26,11l0 0c-15,0 -27,-9 -31,-23l0 0 92 0c1,-5 1,-9 1,-13 0,-35 -24,-63 -60,-63l0 0c-43,0 -63,37 -63,64zm63 -37c14,0 27,9 31,24l0 0 -64 0c5,-15 17,-24 33,-24l0 0z"/>
   <path class="fil7" d="M906 364l29 0 0 -118 -29 0 0 52 -16 0c-19,0 -19,-11 -19,-18l0 0 0 -34 -28 0 0 34c0,16 -3,44 47,44l0 0 16 0 0 40z"/>
   <polygon class="fil8" points="958,364 986,364 986,315 1030,315 1030,364 1058,364 1058,246 1030,246 1030,290 986,290 986,246 958,246 "/>
   <path class="fil9" d="M1081 364l53 0c23,0 40,-14 40,-38l0 0c0,-20 -12,-39 -40,-39l0 0 -25 0 0 -41 -28 0 0 118zm106 0l28 0 0 -118 -28 0 0 118zm-78 -51l22 0c12,0 15,7 15,13l0 0c0,13 -12,13 -15,13l0 0 -22 0 0 -26z"/>
   <path class="fil10" d="M1306 203c-1,7 -7,10 -14,10l0 0c-6,0 -12,-3 -13,-10l0 0 -22 0c3,16 16,29 35,29l0 0c20,0 33,-13 36,-29l0 0 -22 0zm-68 161l28 0 53 -76 0 76 28 0 0 -118 -28 0 -53 77 0 -77 -28 0 0 118z"/>
   <polygon class="fil11" points="591,551 620,551 620,422 669,422 669,394 591,394 "/>
   <path class="fil12" d="M715 555l1 0c35,0 62,-28 62,-62l0 0c0,-35 -26,-64 -63,-64l0 0c-36,0 -62,29 -62,64 0,34 26,62 62,62zm-34 -62c0,-20 13,-37 34,-37l0 0c21,0 35,17 35,37l0 0c0,19 -14,35 -35,35l0 0c-20,0 -34,-16 -34,-35l0 0z"/>
   <path class="fil13" d="M795 591l28 0 0 -52 1 0c11,14 26,16 35,16l0 0c38,0 59,-30 59,-63 0,-38 -27,-63 -59,-63l0 0c-9,0 -28,3 -38,20l0 0 0 -16 -26 0 0 158zm26 -99c0,-20 15,-36 35,-36l0 0c24,0 34,20 34,36l0 0c0,21 -15,36 -35,36l0 0c-19,0 -34,-13 -34,-36l0 0z"/>
   <path class="fil14" d="M991 555l1 0c36,0 62,-28 62,-62l0 0c0,-35 -26,-64 -62,-64l0 0c-36,0 -63,29 -63,64 0,34 27,62 62,62zm-33 -62c0,-20 13,-37 34,-37l0 0c21,0 34,17 34,37l0 0c0,19 -13,35 -34,35l0 0c-21,0 -34,-16 -34,-35l0 0z"/>
   <path class="fil15" d="M1062 581l28 0 0 -30 84 0 0 30 28 0 0 -55 -14 0 -43 -93 -26 0 -43 93 -14 0 0 55zm70 -109l24 54 -48 0 24 -54z"/>
  </g>
 </g>
</svg>
